<svg width="36" height="37" viewBox="0 0 36 37" fill="none" xmlns="http://www.w3.org/2000/svg">
<path d="M36 18.25C36 15.8862 35.5344 13.5456 34.6298 11.3617C33.7252 9.17784 32.3994 7.19353 30.7279 5.52208C29.0565 3.85062 27.0722 2.52475 24.8883 1.62017C22.7044 0.715584 20.3638 0.25 18 0.25V4.75C19.7728 4.75 21.5283 5.09919 23.1662 5.77763C24.8041 6.45606 26.2924 7.45047 27.5459 8.70406C28.7995 9.95765 29.7939 11.4459 30.4724 13.0838C31.1508 14.7217 31.5 16.4772 31.5 18.25H36Z" fill="#12B76A"/>
<path fill-rule="evenodd" clip-rule="evenodd" d="M15.75 0.391174C12.9873 0.739249 10.3321 1.72514 7.99974 3.28356C5.03966 5.26142 2.73255 8.07264 1.37018 11.3617C0.00779915 14.6508 -0.348661 18.27 0.345873 21.7616C1.04041 25.2533 2.75474 28.4606 5.27209 30.9779C7.78943 33.4953 10.9967 35.2096 14.4884 35.9041C17.98 36.5987 21.5992 36.2422 24.8883 34.8798C28.1774 33.5175 30.9886 31.2104 32.9665 28.2503C34.5249 25.9179 35.5108 23.2628 35.8588 20.5H31.3112C30.9952 22.3693 30.2875 24.1598 29.2248 25.7502C27.7414 27.9703 25.633 29.7006 23.1662 30.7224C20.6994 31.7442 17.985 32.0115 15.3663 31.4906C12.7475 30.9697 10.3421 29.684 8.45407 27.796C6.56606 25.9079 5.28031 23.5025 4.75941 20.8837C4.23851 18.265 4.50585 15.5506 5.52763 13.0838C6.54942 10.617 8.27975 8.50857 10.4998 7.02517C12.0902 5.96252 13.8807 5.2548 15.75 4.93882L15.75 0.391174Z" fill="#B42318"/>
</svg>
