<svg width="36" height="37" viewBox="0 0 36 37" fill="none" xmlns="http://www.w3.org/2000/svg">
<path d="M18 0.5C21.8012 0.5 25.5049 1.70339 28.5801 3.93769C31.6554 6.172 33.9444 9.32251 35.119 12.9377C36.2937 16.5529 36.2937 20.4471 35.119 24.0623C33.9444 27.6775 31.6554 30.828 28.5801 33.0623L25.9351 29.4217C28.2415 27.746 29.9583 25.3831 30.8393 22.6717C31.7202 19.9603 31.7202 17.0397 30.8393 14.3283C29.9583 11.6169 28.2415 9.254 25.9351 7.57827C23.6287 5.90254 20.8509 5 18 5V0.5Z" fill="#12B76A"/>
<path fill-rule="evenodd" clip-rule="evenodd" d="M15.75 0.641174C13.6913 0.900553 11.6871 1.51471 9.82817 2.46188C7.29719 3.75148 5.10735 5.62178 3.4377 7.91986C1.76804 10.2179 0.665978 12.8786 0.221612 15.6842C-0.222754 18.4898 0.0031952 21.3607 0.880985 24.0623C1.75877 26.7639 3.26348 29.2193 5.27208 31.2279C7.28068 33.2365 9.73614 34.7412 12.4377 35.619C15.1393 36.4968 18.0102 36.7228 20.8158 36.2784C22.8765 35.952 24.8589 35.2709 26.6769 34.2706L24.0038 30.5915C22.7809 31.1987 21.469 31.6188 20.1119 31.8338C18.0077 32.1671 15.8544 31.9976 13.8283 31.3393C11.8021 30.6809 9.96051 29.5524 8.45406 28.0459C6.94761 26.5395 5.81908 24.6979 5.16074 22.6717C4.5024 20.6456 4.33293 18.4923 4.66621 16.3881C4.99948 14.2839 5.82603 12.2885 7.07827 10.5649C8.33051 8.84134 9.97289 7.43861 11.8711 6.47141C13.0954 5.8476 14.4037 5.41638 15.75 5.18882V0.641174Z" fill="#B42318"/>
</svg>
