<svg width="36" height="37" viewBox="0 0 36 37" fill="none" xmlns="http://www.w3.org/2000/svg">
<path fill-rule="evenodd" clip-rule="evenodd" d="M5.27208 6.02207C8.38159 2.91256 12.5117 1.05822 16.875 0.785156V5.29692C13.7066 5.56175 10.7193 6.93884 8.45406 9.20405C5.92232 11.7358 4.5 15.1696 4.5 18.75C4.5 22.3304 5.92232 25.7642 8.45406 28.2959C10.7193 30.5612 13.7066 31.9382 16.875 32.2031V36.7148C12.5117 36.4418 8.38159 34.5874 5.27208 31.4779C1.89642 28.1023 0 23.5239 0 18.75C0 13.9761 1.89642 9.39773 5.27208 6.02207Z" fill="#B42318"/>
<path fill-rule="evenodd" clip-rule="evenodd" d="M27.5459 9.20405C25.2807 6.93884 22.2934 5.56175 19.125 5.29692V0.785156C23.4883 1.05822 27.6184 2.91256 30.7279 6.02207C34.1036 9.39773 36 13.9761 36 18.75C36 23.5239 34.1036 28.1023 30.7279 31.4779C27.6184 34.5874 23.4884 36.4418 19.125 36.7148V32.2031C22.2934 31.9382 25.2807 30.5612 27.5459 28.2959C30.0777 25.7642 31.5 22.3304 31.5 18.75C31.5 15.1696 30.0777 11.7358 27.5459 9.20405Z" fill="#12B76A"/>
</svg>
