<svg width="36" height="36" viewBox="0 0 36 36" fill="none" xmlns="http://www.w3.org/2000/svg">
<path d="M18.0001 0C20.8406 3.38737e-08 23.6409 0.672283 26.1719 1.96188C28.7029 3.25148 30.8927 5.12178 32.5624 7.41987C34.232 9.71795 35.3341 12.3786 35.7784 15.1842C36.2228 17.9898 35.9969 20.8607 35.1191 23.5623C34.2413 26.2639 32.7366 28.7193 30.728 30.7279C28.7194 32.7365 26.2639 34.2412 23.5624 35.119C20.8608 35.9968 17.9899 36.2228 15.1842 35.7784C12.3786 35.334 9.71801 34.232 7.41992 32.5623L10.065 28.9217C11.7885 30.174 13.784 31.0005 15.8882 31.3338C17.9924 31.6671 20.1456 31.4976 22.1718 30.8393C24.198 30.1809 26.0395 29.0524 27.546 27.5459C29.0524 26.0395 30.181 24.1979 30.8393 22.1717C31.4977 20.1456 31.6671 17.9923 31.3338 15.8881C31.0006 13.7839 30.174 11.7885 28.9218 10.0649C27.6695 8.34134 26.0272 6.93861 24.1289 5.97141C22.2307 5.00421 20.1305 4.5 18.0001 4.5V0Z" fill="#12B76A"/>
<path fill-rule="evenodd" clip-rule="evenodd" d="M15.75 0.141174C12.7519 0.518897 9.88412 1.64732 7.41987 3.43771C4.34461 5.67202 2.05563 8.82253 0.880983 12.4377C-0.293661 16.0529 -0.293661 19.9471 0.880983 23.5623C1.82225 26.4592 3.47904 29.0578 5.68256 31.1256L8.3556 27.4465C6.90501 25.9655 5.80759 24.1626 5.16074 22.1717C4.27975 19.4604 4.27975 16.5397 5.16074 13.8283C6.04172 11.1169 7.75846 8.75402 10.0649 7.07829C11.7584 5.8479 13.7059 5.03434 15.75 4.68882V0.141174Z" fill="#B42318"/>
</svg>
