<svg width="36" height="37" viewBox="0 0 36 37" fill="none" xmlns="http://www.w3.org/2000/svg">
<path d="M18 0.25C21.5601 0.25 25.0402 1.30568 28.0003 3.28355C30.9604 5.26141 33.2675 8.07263 34.6298 11.3617C35.9922 14.6508 36.3487 18.27 35.6541 21.7616C34.9596 25.2533 33.2453 28.4606 30.7279 30.9779C28.2106 33.4953 25.0033 35.2096 21.5116 35.9041C18.02 36.5987 14.4008 36.2422 11.1117 34.8798C7.82263 33.5175 5.01141 31.2104 3.03355 28.2503C1.05568 25.2902 -8.49067e-08 21.8101 0 18.25H4.5C4.5 20.92 5.29176 23.5301 6.77516 25.7502C8.25856 27.9703 10.367 29.7006 12.8338 30.7224C15.3006 31.7442 18.015 32.0115 20.6337 31.4906C23.2525 30.9697 25.6579 29.684 27.5459 27.7959C29.434 25.9079 30.7197 23.5025 31.2406 20.8837C31.7615 18.265 31.4942 15.5506 30.4724 13.0838C29.4506 10.617 27.7203 8.50856 25.5002 7.02516C23.2801 5.54176 20.67 4.75 18 4.75V0.25Z" fill="#12B76A"/>
<path fill-rule="evenodd" clip-rule="evenodd" d="M15.7499 0.391174C14.1593 0.591583 12.5991 1.00405 11.1116 1.62016C8.92777 2.52475 6.94347 3.85062 5.27201 5.52208C3.60056 7.19353 2.27469 9.17784 1.3701 11.3617C0.753985 12.8491 0.341522 14.4093 0.141113 16H4.68876C4.85748 15.0018 5.13833 14.0235 5.52756 13.0838C6.206 11.4459 7.2004 9.95765 8.45399 8.70405C9.70758 7.45046 11.1958 6.45606 12.8337 5.77762C13.7734 5.38839 14.7518 5.10754 15.7499 4.93882V0.391174Z" fill="#B42318"/>
</svg>
