<svg width="36" height="37" viewBox="0 0 36 37" fill="none" xmlns="http://www.w3.org/2000/svg">
<path d="M15.7501 0.641174C13.4954 0.925239 11.3143 1.63389 9.32324 2.72938L11.9963 6.40851C13.181 5.82027 14.4459 5.40928 15.7501 5.18882V0.641174Z" fill="#B42318"/>
<path d="M18 0.5C22.2859 0.5 26.4311 2.02925 29.6901 4.81269C32.9491 7.59614 35.108 11.4511 35.7784 15.6842C36.4489 19.9173 35.5869 24.2507 33.3475 27.905C31.1082 31.5593 27.6384 34.2946 23.5623 35.619C19.4862 36.9434 15.0713 36.77 11.1117 35.1298C7.1521 33.4897 3.90764 30.4906 1.9619 26.6718C0.0161674 22.8531 -0.503148 18.4654 0.497367 14.298C1.49788 10.1305 3.95256 6.45685 7.4199 3.93769L10.0649 7.57827C7.46443 9.46764 5.62342 12.2229 4.87303 15.3485C4.12265 18.4741 4.51213 21.7648 5.97143 24.6289C7.43074 27.4929 9.86408 29.7423 12.8338 30.9724C15.8035 32.2025 19.1147 32.3326 22.1718 31.3393C25.2288 30.346 27.8312 28.2945 29.5107 25.5537C31.1902 22.813 31.8367 19.563 31.3338 16.3881C30.831 13.2133 29.2118 10.3221 26.7676 8.23452C24.3233 6.14694 21.2144 5 18 5V0.5Z" fill="#12B76A"/>
</svg>
