<svg width="16" height="16" viewBox="0 0 16 16" fill="none" xmlns="http://www.w3.org/2000/svg">
<path fill-rule="evenodd" clip-rule="evenodd" d="M7.94872 7.40035L8.84949 6.49971L10.057 5.2915C9.55581 5.23931 9.04955 5.3153 8.58576 5.51236C8.12196 5.70941 7.71585 6.02106 7.40554 6.41805C7.09522 6.81504 6.89088 7.28436 6.81168 7.78195C6.73249 8.27955 6.78104 8.7891 6.95278 9.26279L7.22981 10.0249L6.65621 10.5976L3.4296 13.8246C3.37877 13.8732 3.33815 13.9314 3.31015 13.9959C3.28214 14.0604 3.2673 14.1298 3.2665 14.2001C3.2657 14.2704 3.27896 14.3401 3.30549 14.4052C3.33203 14.4703 3.37131 14.5295 3.42103 14.5792C3.47074 14.6289 3.52989 14.6682 3.595 14.6947C3.66011 14.7212 3.72987 14.7345 3.80017 14.7337C3.87048 14.7329 3.93991 14.718 4.0044 14.69C4.06889 14.662 4.12713 14.6214 4.17571 14.5706L7.40317 11.3445L7.97592 10.7709L8.73817 11.0471C9.21193 11.2188 9.72156 11.2673 10.2192 11.1882C10.7169 11.109 11.1863 10.9047 11.5833 10.5944C11.9804 10.2841 12.2921 9.87806 12.4891 9.41434C12.6862 8.95061 12.7622 8.44442 12.71 7.94328L11.5016 9.15234L10.6009 10.0513L9.70012 9.15064L8.85034 8.30098L7.94787 7.40035H7.94872ZM13.1944 5.76051C13.7189 6.48458 14.0009 7.35598 14 8.25C14.0003 8.93256 13.836 9.60513 13.5212 10.2108C13.2064 10.8164 12.7503 11.3373 12.1915 11.7293C11.6327 12.1214 10.9876 12.373 10.3109 12.4629C9.63418 12.5528 8.94577 12.4784 8.30393 12.2459L5.07732 15.4721C4.90993 15.6395 4.71121 15.7722 4.4925 15.8628C4.27379 15.9534 4.03938 16 3.80265 16C3.56593 16 3.33152 15.9534 3.11281 15.8628C2.8941 15.7722 2.69538 15.6395 2.52798 15.4721C2.18992 15.1341 2 14.6756 2 14.1976C2 13.7196 2.18992 13.2611 2.52798 12.9231L5.75459 9.69697C5.44247 8.83664 5.41655 7.89852 5.6807 7.02227C5.94485 6.14602 6.48495 5.37849 7.2206 4.83393C7.95624 4.28936 8.8481 3.99688 9.76341 4.00003C10.6787 4.00317 11.5686 4.30177 12.3004 4.85137L11.3861 5.7656L10.6527 6.49886L9.7511 7.40035L10.6009 8.25L11.5016 7.34937L12.2359 6.61526L13.1502 5.70103L13.1944 5.76051Z" fill="#039855"/>
</svg>
