<svg width="36" height="36" viewBox="0 0 36 36" fill="none" xmlns="http://www.w3.org/2000/svg">
<path fill-rule="evenodd" clip-rule="evenodd" d="M18 31.5C25.4558 31.5 31.5 25.4558 31.5 18C31.5 10.5442 25.4558 4.5 18 4.5C10.5442 4.5 4.5 10.5442 4.5 18C4.5 25.4558 10.5442 31.5 18 31.5ZM18 36C27.9411 36 36 27.9411 36 18C36 8.05887 27.9411 0 18 0C8.05887 0 0 8.05887 0 18C0 27.9411 8.05887 36 18 36Z" fill="#EFF2F9"/>
<path d="M18 0C22.1578 4.95818e-08 26.1875 1.43942 29.4043 4.07372C32.6212 6.70802 34.8269 10.3747 35.6467 14.451L31.235 15.3382C30.6201 12.281 28.9659 9.53101 26.5532 7.55529C24.1406 5.57956 21.1184 4.5 18 4.5V0Z" fill="#F75F09"/>
<circle cx="18" cy="18" r="4.5" fill="#F75F09"/>
</svg>
