<svg width="36" height="37" viewBox="0 0 36 37" fill="none" xmlns="http://www.w3.org/2000/svg">
<path fill-rule="evenodd" clip-rule="evenodd" d="M18 31.75C25.4558 31.75 31.5 25.7058 31.5 18.25C31.5 10.7942 25.4558 4.75 18 4.75C10.5442 4.75 4.5 10.7942 4.5 18.25C4.5 25.7058 10.5442 31.75 18 31.75ZM18 36.25C27.9411 36.25 36 28.1911 36 18.25C36 8.30887 27.9411 0.25 18 0.25C8.05887 0.25 0 8.30887 0 18.25C0 28.1911 8.05887 36.25 18 36.25Z" fill="#EFF2F9"/>
<path d="M18 0.25C21.5601 0.25 25.0402 1.30568 28.0003 3.28355C30.9604 5.26141 33.2675 8.07263 34.6298 11.3617C35.9922 14.6508 36.3487 18.27 35.6541 21.7616C34.9596 25.2533 33.2453 28.4606 30.7279 30.9779L27.5459 27.7959C29.434 25.9079 30.7197 23.5025 31.2406 20.8837C31.7615 18.265 31.4942 15.5506 30.4724 13.0838C29.4506 10.617 27.7203 8.50856 25.5002 7.02516C23.2801 5.54176 20.67 4.75 18 4.75V0.25Z" fill="#F04438"/>
<circle cx="18" cy="18.25" r="4.5" fill="#F04438"/>
</svg>
