<svg width="36" height="37" viewBox="0 0 36 37" fill="none" xmlns="http://www.w3.org/2000/svg">
<path fill-rule="evenodd" clip-rule="evenodd" d="M18 31.75C25.4558 31.75 31.5 25.7058 31.5 18.25C31.5 10.7942 25.4558 4.75 18 4.75C10.5442 4.75 4.5 10.7942 4.5 18.25C4.5 25.7058 10.5442 31.75 18 31.75ZM18 36.25C27.9411 36.25 36 28.1911 36 18.25C36 8.30887 27.9411 0.25 18 0.25C8.05887 0.25 0 8.30887 0 18.25C0 28.1911 8.05887 36.25 18 36.25Z" fill="#EFF2F9"/>
<path d="M18 0.25C19.8423 0.25 21.6736 0.53282 23.4301 1.08858L22.0725 5.37893C20.7552 4.96212 19.3817 4.75 18 4.75V0.25Z" fill="#12B76A"/>
<circle cx="18" cy="18.25" r="4.5" fill="#12B76A"/>
</svg>
