<svg width="36" height="37" viewBox="0 0 36 37" fill="none" xmlns="http://www.w3.org/2000/svg">
<path fill-rule="evenodd" clip-rule="evenodd" d="M18 32C25.4558 32 31.5 25.9558 31.5 18.5C31.5 11.0442 25.4558 5 18 5C10.5442 5 4.5 11.0442 4.5 18.5C4.5 25.9558 10.5442 32 18 32ZM18 36.5C27.9411 36.5 36 28.4411 36 18.5C36 8.55887 27.9411 0.5 18 0.5C8.05887 0.5 0 8.55887 0 18.5C0 28.4411 8.05887 36.5 18 36.5Z" fill="#EFF2F9"/>
<path d="M18 0.5C22.2541 0.5 26.3707 2.00671 29.6197 4.75289L26.7148 8.18966C24.278 6.13003 21.1906 5 18 5V0.5Z" fill="#6EB712"/>
<circle cx="18" cy="18.5" r="4.5" fill="#6EB712"/>
</svg>
