<svg width="16" height="16" viewBox="0 0 16 16" fill="none" xmlns="http://www.w3.org/2000/svg">
<path d="M6.74166 9.32706H8.39638L6.05587 11.9659C5.70982 12.3602 5.99924 12.9668 6.53404 12.9668H9.25834C9.60438 12.9668 9.88751 12.6939 9.88751 12.3602C9.88751 12.0266 9.60438 11.7536 9.25834 11.7536H7.60362L9.94413 9.11474C10.2902 8.72043 10.0008 8.1138 9.46596 8.1138H6.74166C6.39562 8.1138 6.11249 8.38678 6.11249 8.72043C6.11249 9.05408 6.39562 9.32706 6.74166 9.32706ZM13.8513 6.54869C13.6311 6.80348 13.2347 6.83988 12.9641 6.62755L11.0326 5.07458C10.7683 4.85619 10.7306 4.47402 10.9571 4.21923C11.1773 3.96445 11.5737 3.92805 11.8442 4.14037L13.7758 5.69334C14.04 5.91173 14.0778 6.29391 13.8513 6.54869ZM2.14872 6.54869C2.36893 6.80954 2.76531 6.83988 3.02956 6.62755L4.96111 5.07458C5.23166 4.85619 5.26941 4.47402 5.0429 4.21923C4.82269 3.95838 4.42632 3.92805 4.16207 4.14037L2.22423 5.69334C1.95997 5.91173 1.92222 6.29391 2.14872 6.54869ZM8 6.29391C10.4286 6.29391 12.4042 8.19873 12.4042 10.5403C12.4042 12.8819 10.4286 14.7867 8 14.7867C5.57141 14.7867 3.59581 12.8819 3.59581 10.5403C3.59581 8.19873 5.57141 6.29391 8 6.29391ZM8 5.08065C4.87303 5.08065 2.33748 7.52537 2.33748 10.5403C2.33748 13.5553 4.87303 16 8 16C11.127 16 13.6625 13.5553 13.6625 10.5403C13.6625 7.52537 11.127 5.08065 8 5.08065Z" fill="#AE7A29"/>
</svg>
