<svg width="12" height="17" viewBox="0 0 12 17" fill="none" xmlns="http://www.w3.org/2000/svg">
<path fill-rule="evenodd" clip-rule="evenodd" d="M6 2C3.637 2 2 3.69 2 5.75C2 6.734 2.424 7.375 2.984 8.054L3.198 8.307C3.421 8.571 3.668 8.863 3.871 9.155C4.155 9.566 4.408 10.051 4.492 10.645C4.51202 10.838 4.45649 11.0312 4.33707 11.1841C4.21766 11.337 4.04365 11.4376 3.85158 11.4649C3.65951 11.4922 3.46434 11.4441 3.30704 11.3305C3.14974 11.217 3.04256 11.0469 3.008 10.856C2.968 10.574 2.845 10.309 2.638 10.009C2.46879 9.77344 2.2879 9.54649 2.096 9.329C2.012 9.229 1.923 9.124 1.828 9.009C1.201 8.25 0.5 7.266 0.5 5.75C0.5 2.81 2.863 0.5 6 0.5C9.137 0.5 11.5 2.81 11.5 5.75C11.5 7.266 10.799 8.25 10.172 9.009C10.077 9.124 9.988 9.229 9.904 9.328C9.697 9.573 9.521 9.781 9.363 10.009C9.155 10.309 9.033 10.574 8.993 10.856C8.97908 10.9535 8.94609 11.0473 8.89592 11.1321C8.84574 11.2168 8.77936 11.2909 8.70057 11.35C8.62178 11.4091 8.53212 11.4521 8.43671 11.4765C8.3413 11.501 8.24201 11.5064 8.1445 11.4925C8.04699 11.4786 7.95318 11.4456 7.86843 11.3954C7.78367 11.3452 7.70962 11.2789 7.65052 11.2001C7.59142 11.1213 7.54841 11.0316 7.52396 10.9362C7.4995 10.8408 7.49408 10.7415 7.508 10.644C7.592 10.051 7.845 9.566 8.129 9.155C8.332 8.863 8.579 8.571 8.802 8.307C8.877 8.219 8.949 8.134 9.015 8.054C9.576 7.375 10 6.734 10 5.75C10 3.69 8.363 2 6 2ZM4 15.75C4 15.5511 4.07902 15.3603 4.21967 15.2197C4.36032 15.079 4.55109 15 4.75 15H7.25C7.44891 15 7.63968 15.079 7.78033 15.2197C7.92098 15.3603 8 15.5511 8 15.75C8 15.9489 7.92098 16.1397 7.78033 16.2803C7.63968 16.421 7.44891 16.5 7.25 16.5H4.75C4.55109 16.5 4.36032 16.421 4.21967 16.2803C4.07902 16.1397 4 15.9489 4 15.75ZM3.75 12.5C3.55109 12.5 3.36032 12.579 3.21967 12.7197C3.07902 12.8603 3 13.0511 3 13.25C3 13.4489 3.07902 13.6397 3.21967 13.7803C3.36032 13.921 3.55109 14 3.75 14H8.25C8.44891 14 8.63968 13.921 8.78033 13.7803C8.92098 13.6397 9 13.4489 9 13.25C9 13.0511 8.92098 12.8603 8.78033 12.7197C8.63968 12.579 8.44891 12.5 8.25 12.5H3.75Z" fill="#768390"/>
</svg>
